PathFileType	4	(X/Y/Z)	Patient4_TMGait_0pt7_01_left_34.trc.trc
DataRate	CameraRate	NumFrames	NumMarkers	Units	OrigDataRate	OrigDataStartFrame	OrigNumFrames
86.419753086420	86.419753086420	5	33	mm	86.419753086420	124	       141
Frame#	Time	Sacral			L.Shoulder			Chest			R.Shoulder			Neck			R.ASIS			L.ASIS			R.Thigh.Superior			R.Thigh.Lateral			R.Thigh.Inferior			R.Patella			L.Thigh.Superior			L.Thigh.Lateral			L.Thigh.Inferior			L.Patella			L.Shank.Superior			L.Shank.Lateral			L.Shank.Inferior			R.Shank.Superior			R.Shank.Lateral			R.Shank.Inferior			R.Heel			R.Midfoot.Superior			R.Midfoot.Lateral			R.Toe			L.Heel			L.Midfoot.Lateral			L.Midfoot.Superior			L.Toe			L.Elbow			L.Wrist			R.Elbow			R.Wrist			
		X1	Y1	Z1	X2	Y2	Z2	X3	Y3	Z3	X4	Y4	Z4	X5	Y5	Z5	X6	Y6	Z6	X7	Y7	Z7	X8	Y8	Z8	X9	Y9	Z9	X10	Y10	Z10	X11	Y11	Z11	X12	Y12	Z12	X13	Y13	Z13	X14	Y14	Z14	X15	Y15	Z15	X16	Y16	Z16	X17	Y17	Z17	X18	Y18	Z18	X19	Y19	Z19	X20	Y20	Z20	X21	Y21	Z21	X22	Y22	Z22	X23	Y23	Z23	X24	Y24	Z24	X25	Y25	Z25	X26	Y26	Z26	X27	Y27	Z27	X28	Y28	Z28	X29	Y29	Z29	X30	Y30	Z30	X31	Y31	Z31	X32	Y32	Z32	X33	Y33	Z33	

124	40.663285714286	847.234512935250	999.611193922430	494.792659260196	1029.262220909732	1409.412664770932	285.960913201120	1144.342332603844	1338.413557062137	438.517884625475	1084.074717846527	1427.731082988074	614.432151865327	1051.751555440883	1475.283121296441	438.681725902923	1072.848374497826	924.808009619954	602.689797445620	1050.566448777317	938.514066056806	328.069528411632	1062.805281509415	711.408549759378	579.219463988336	953.005547309593	622.819982993933	639.815433386117	1011.004830996435	553.704142716241	561.012350568567	986.317285715117	468.048417605714	564.953544175430	1126.673700168268	765.298914701426	370.376965134508	1088.394158378492	636.295360572760	287.265308735055	1187.371502570313	580.447109543927	357.862795218666	1215.057067735750	515.026865157419	356.309180385452	1200.048654745227	440.940040383326	343.264614907567	1138.408536433981	311.294632138293	287.055572506789	1221.053317466435	212.484264350164	348.455657174719	941.280435932419	386.173227830432	572.091397598683	850.039957364630	300.082750117037	634.255860521246	870.251311585652	198.673769159710	571.823444253179	709.462060674448	47.820079785061	542.110995946877	881.159315278027	96.644305997719	581.133393920255	790.303532714416	39.510348877198	618.737004649502	998.851933062081	39.034905079417	615.657459423780	1134.145403399928	37.898239222456	378.400454247831	1214.639563514124	41.024246647907	304.827501883408	1285.187179674823	113.944664813838	333.747320346398	1419.780614709546	79.331669639670	319.480718840069	862.857251825203	1093.794337560394	214.499085193249	810.575545458577	839.577570939431	246.128894890294	1232.690198927795	1132.513822774506	737.275644085749	1438.730559288861	1218.227158794230	626.389363778224	
125	40.674857142857	848.485816175689	997.814958174271	492.168272831559	1029.741027194257	1408.050825667488	283.773447350640	1144.809246557609	1337.421001566095	436.538126540074	1083.674624157902	1426.440292317016	612.385537083053	1051.735997815915	1474.027593538385	436.604238713951	1074.145233142956	923.195259105182	600.529612723976	1052.344994034782	936.934718266335	326.019371824006	1063.150272563576	709.680195497702	577.424127201290	952.599245277751	621.671452006180	638.115338451317	1010.360600771111	551.908632219662	559.661893211778	984.860376573626	465.715974034459	563.631696010174	1128.418580582675	762.806650503944	367.955900738447	1087.549334776889	633.657945414728	286.460332829060	1187.258798473989	577.851075770488	356.146821535746	1213.377929273615	511.676380091373	355.556038479265	1198.203896144217	437.636548504537	342.699680017759	1135.126018460705	308.380496864818	287.532147919521	1216.928682350409	209.177464052333	349.066043160082	938.362698246578	384.672087983282	571.043397482609	845.794818999413	300.169171548115	633.750368380794	864.130275329617	198.306364836169	571.581670118496	701.301530121190	48.991219258268	542.562168421771	873.377373022115	96.704884139845	581.282276480182	782.252346593180	39.965072756211	619.042660717839	990.776019395843	38.884911896049	615.733313843303	1127.130588415883	37.484214451912	380.308976170839	1206.909287935894	39.121604162370	305.739514590538	1279.742777758663	109.499897367630	334.710116086923	1413.373033420263	71.164432791831	318.724456784795	862.741645191160	1092.940649198499	212.997124264698	808.009557373231	839.240345157220	244.814848500839	1236.013952092861	1132.787103647981	733.269476968994	1437.840376484712	1226.392359611713	621.688761902882	
126	40.686428571429	849.671951256600	996.324169074497	489.526357625533	1030.319817644350	1406.860413899784	281.444616944556	1145.377110842718	1336.607367381224	434.432557988393	1083.447665671533	1425.390395151864	610.216001021134	1051.906419424095	1473.010550383317	434.337963299203	1075.366786167731	921.828668589822	598.267945619997	1054.054193818422	935.710988391401	323.860676359656	1063.742144695664	708.201877815541	575.561188356486	952.602193943014	620.624418177941	636.318412787572	1010.340948749315	550.256635245573	558.272526584398	984.180595147343	463.314349461416	562.403196337992	1130.414889405025	761.094550576355	365.518847833777	1087.278370292407	631.781929706223	285.608673468124	1187.685106240608	576.047708341730	354.471383990870	1212.272743434052	509.016783557859	354.894012146241	1196.819920292745	434.884474956930	342.224289294225	1132.269987683966	306.231320092774	287.542653273141	1212.547670310104	206.325655298898	349.535676700424	936.012438658504	383.260219750246	570.042259776816	841.940469451873	300.535918010304	633.228831885026	858.340258709834	198.175650715777	571.405389505754	693.214339360092	50.745559746880	543.096723487668	865.815831775421	96.795975168298	581.498565811996	774.255754160674	40.680794876777	619.371475815217	982.698305976370	38.662759123055	615.779428629691	1119.285211291850	37.403125538696	381.597711135656	1198.571619202374	37.650429593240	306.280831055427	1273.565735836570	105.584899748494	335.556790462459	1406.297271795359	63.641773184859	318.232154115707	863.500775147879	1091.705552858135	211.273843876071	806.638371114218	838.469576349184	243.071765515077	1238.413329060919	1132.591464710057	729.330793144851	1436.368073618046	1233.104924748513	617.280584589544	
127	40.698000000000	850.766342435925	995.227569403605	486.887948261228	1030.994539687323	1405.920037587671	279.005056418027	1146.035545876961	1336.023131846881	432.217873574173	1083.445268622656	1424.659956845995	607.932925717185	1052.291196822934	1472.298904647121	431.911254075324	1076.453374222082	920.807271529116	595.916463949476	1055.651182514261	934.912902491783	321.584482951305	1064.565484827606	707.061043994957	573.646964294414	953.054293022292	619.719938635754	634.444722466867	1011.028642185473	548.818913925826	556.863336317654	984.407345475617	460.889364251320	561.344598022976	1132.578786190089	760.249174293707	363.128755891050	1087.591706756087	630.752409864027	284.651249033354	1188.529783293458	575.046286788158	352.826881492365	1211.672439089019	507.108807181093	354.247186792731	1195.848598477196	432.747268720221	341.775977777032	1129.857276069465	304.866584867759	287.065991459918	1208.029075484570	204.024414456409	349.833642665491	934.330379106185	381.986943189592	569.128216933890	838.553176287559	301.273917541553	632.689540353679	852.981037542231	198.364240629905	571.305952366027	685.277209870988	53.254049753376	543.676329782123	858.556457485612	96.942316144669	581.779333051452	766.352002794361	41.771773678304	619.701237293040	974.613051886439	38.341340500548	615.778039456111	1110.997173463390	37.544230127661	382.303070011873	1190.002542982126	36.609606483250	306.490960768189	1266.855923532965	102.404184885659	336.242256128397	1398.819019733058	57.286823822302	317.984156813931	865.112264001425	1090.184550719105	209.308434191458	806.527844109058	837.324050871259	240.885743797505	1239.845496769232	1131.944483116033	725.522200159675	1434.407258467227	1238.297727482863	613.165041546646	
128	40.709571428571	851.754767674418	994.587550655964	484.257211067698	1031.756724987228	1405.294552417712	276.484661600952	1146.764400604714	1335.713316705645	429.916142872515	1083.685329068202	1424.316095966583	605.546929815384	1052.894653143273	1471.943491532200	429.357485267773	1077.355801171997	920.216661946327	593.493954687234	1057.116063483918	934.574623415503	319.190972944222	1065.621999354834	706.336686012565	571.707854435308	954.014338906315	618.991221579634	632.526937044751	1012.523385898555	547.661825594111	555.466450138117	985.677596982105	458.495172485309	560.539856612053	1134.810395967719	760.259603668776	360.825886296803	1088.396731890866	630.551221098412	283.549609808373	1189.603429602942	574.754513963247	351.183068730388	1211.419951321864	505.905961132140	353.531480971917	1195.143687452321	431.203482215928	341.289650634487	1127.757899116118	304.217363553279	286.157519763577	1203.404136561786	202.292653732926	349.949467265639	933.438457398722	380.900068606861	568.345136817688	835.735386763148	302.473891897062	632.131778665798	848.173185647319	198.959186864560	571.288805829776	677.599203498672	56.700738487523	544.241333363416	851.693950483762	97.189735458428	582.113718367310	758.598568980285	43.378639420310	619.997074532972	966.521883819042	37.896070768950	615.714471807059	1102.548348103084	37.803627051636	382.520097336652	1181.447633076953	35.954446516519	306.435813795151	1259.755365102994	100.043796563007	336.740982561179	1391.118967397549	52.388442767944	317.924225391554	867.534109834199	1088.487490724086	207.083598379960	807.737950967649	835.876921582376	238.252471623126	1240.259632339228	1130.895668386462	721.901755228069	1432.035383938402	1241.915308257470	609.338488483325	
